<svg width="10" height="18" viewBox="0 0 10 18" fill="none" xmlns="http://www.w3.org/2000/svg">
<path d="M8.85 1.4917C8.75324 1.39469 8.63829 1.31773 8.51174 1.26521C8.38519 1.2127 8.24952 1.18567 8.1125 1.18567C7.97549 1.18567 7.83982 1.2127 7.71327 1.26521C7.58671 1.31773 7.47177 1.39469 7.375 1.4917L0.450002 8.4167C0.372749 8.49379 0.31146 8.58537 0.269642 8.68618C0.227824 8.78699 0.206299 8.89506 0.206299 9.0042C0.206299 9.11334 0.227824 9.22141 0.269642 9.32222C0.31146 9.42303 0.372749 9.5146 0.450002 9.5917L7.375 16.5167C7.78334 16.925 8.44167 16.925 8.85 16.5167C9.25834 16.1084 9.25834 15.45 8.85 15.0417L2.81667 9.00003L8.85834 2.95836C9.25834 2.55836 9.25834 1.8917 8.85 1.4917Z" fill="white" stroke="white" stroke-width="0.4"/>
</svg>
